PathFileType	4	(X/Y/Z)	3_coords_data.trc
DataRate	CameraRate	NumFrames	NumMarkers	Units	OrigDataRate	OrigDataStartFrame	OrigNumFrames
30.0	30.0	6	21	m	30.0	53	63
Frame#	Time	THUMB_TIP	THUMB_IP	THUMB_MCP	THUMB_CMC	INDEX_TIP	INDEX_DIP	INDEX_PIP	INDEX_MCP	MIDDLE_TIP	MIDDLE_DIP	MIDDLE_PIP	MIDDLE_MCP	RING_TIP	RING_DIP	RING_PIP	RING_MCP	PINKY_TIP	PINKY_DIP	PINKY_PIP	PINKY_MCP	WRIST
X1	Y1	Z1	X2	Y2	Z2	X3	Y3	Z3	X4	Y4	Z4	X5	Y5	Z5	X6	Y6	Z6	X7	Y7	Z7	X8	Y8	Z8	X9	Y9	Z9	X10	Y10	Z10	X11	Y11	Z11	X12	Y12	Z12	X13	Y13	Z13	X14	Y14	Z14	X15	Y15	Z15	X16	Y16	Z16	X17	Y17	Z17	X18	Y18	Z18	X19	Y19	Z19	X20	Y20	Z20	X21	Y21	Z21
52	1.7333333333333334	-0.0918561019897461	-0.05362969970703125	0.9096119995117188	-0.10140599822998046	-0.04970299911499024	0.9364530029296875	-0.10831999969482421	-0.04752629852294922	0.9678259887695313	-0.11133999633789063	-0.029424400329589845	0.9987999877929687	-0.06971869659423828	-0.01665589904785156	0.882344970703125	-0.09002770233154297	-0.016783700942993165	0.8922919921875	-0.10862899780273437	-0.01793549919128418	0.9071929931640625	-0.12512100219726563	-0.023200399398803712	0.9431119995117188	-0.06645829772949219	0.004094170093536377	0.8826010131835937	-0.08710140228271485	0.006304619789123535	0.8906530151367188	-0.10977999877929688	0.005644599914550782	0.9077689819335938	-0.12601300048828126	-0.0010900299549102782	0.9460399780273437	-0.0666968002319336	0.019234100341796876	0.9048259887695312	-0.08580590057373047	0.024486099243164063	0.9086019897460937	-0.10923200225830078	0.02575659942626953	0.9204000244140625	-0.12259700012207031	0.016362100601196288	0.9549530029296875	-0.06907630157470702	0.03577880096435547	0.9206489868164063	-0.08537300109863281	0.03932540130615234	0.9295250244140625	-0.10008999633789062	0.038573299407958984	0.9418250122070313	-0.11284500122070312	0.029902000427246094	0.967333984375	-0.12962600708007813	-0.008641750335693359	1.0265400390625
53	1.7666666666666666	-0.09162419891357422	-0.05294210052490234	0.9097230224609375	-0.10118699645996093	-0.04914590072631836	0.9365759887695313	-0.10827899932861328	-0.04714139938354492	0.9678889770507813	-0.11123799896240234	-0.029163999557495116	0.9989219970703125	-0.06912069702148438	-0.016154699325561524	0.883176025390625	-0.08961849975585938	-0.016124500274658202	0.892552978515625	-0.10853700256347656	-0.017299800872802733	0.9071799926757812	-0.12451599884033203	-0.022886199951171873	0.9432869873046875	-0.06554550170898438	0.004434249877929688	0.8832780151367188	-0.08619599914550781	0.006781469821929931	0.8911199951171875	-0.10918599700927735	0.0061620001792907705	0.907968017578125	-0.1256230010986328	-0.0007038409709930421	0.946197998046875	-0.06563670349121094	0.019431100845336915	0.90572802734375	-0.08460769653320313	0.02478070068359375	0.9092730102539063	-0.10838200378417968	0.026212900161743165	0.9207930297851562	-0.12219999694824218	0.01678510093688965	0.9551329956054687	-0.06811830139160156	0.03584249877929688	0.9214949951171875	-0.08448770141601562	0.039539501190185546	0.9301370239257812	-0.09955010223388672	0.03888059997558594	0.942051025390625	-0.1124489974975586	0.030229700088500976	0.967531982421875	-0.12961500549316407	-0.008456489562988282	1.02668994140625
54	1.8	-0.09090239715576172	-0.05232519912719726	0.9098699951171875	-0.10084100341796876	-0.04879899978637695	0.936676025390625	-0.10803800201416015	-0.046929500579833985	0.9679730224609375	-0.11104299926757813	-0.02905929946899414	0.9988270263671875	-0.06900250244140625	-0.015773200035095216	0.8833499755859375	-0.08959429931640625	-0.01574090003967285	0.892697021484375	-0.10853199768066406	-0.016954399108886718	0.90718701171875	-0.1243479995727539	-0.02266600036621094	0.9434019775390625	-0.06505650329589843	0.004674349784851074	0.8836820068359375	-0.08573919677734375	0.0070060501098632814	0.891323974609375	-0.10891500091552735	0.006345240116119385	0.9080679931640625	-0.12559400177001953	-0.000538235008716583	0.9461950073242188	-0.06517729949951172	0.019486600875854493	0.9062930297851562	-0.08426219940185548	0.02498979949951172	0.9094749755859375	-0.10804100036621093	0.02645669937133789	0.9208839721679688	-0.12213099670410156	0.016941900253295897	0.9551699829101562	-0.06788980102539062	0.03590639877319336	0.9217760009765625	-0.08425679779052735	0.03960079956054687	0.9302999877929687	-0.09910279846191407	0.03894800186157227	0.942197998046875	-0.11255599975585938	0.030507299423217775	0.9674210205078125	-0.1297220001220703	-0.008292510032653808	1.026760009765625
55	1.8333333333333333	-0.09023719787597656	-0.05181470108032227	0.9101530151367188	-0.10053099822998048	-0.04864440155029297	0.9367550048828125	-0.10789900207519532	-0.04691740036010742	0.96789697265625	-0.11130000305175781	-0.02902359962463379	0.9989030151367188	-0.06900910186767578	-0.01566469955444336	0.8834990234375	-0.08958789825439453	-0.01563990020751953	0.8926339721679688	-0.10851999664306641	-0.01691200065612793	0.9070989990234375	-0.12424500274658203	-0.022714099884033202	0.9433300170898438	-0.06483519744873047	0.0045953202247619625	0.883822998046875	-0.08552210235595703	0.006964710235595703	0.8913330078125	-0.1086760025024414	0.0063247098922729495	0.9078790283203125	-0.12544200134277345	-0.000596130013465881	0.94614599609375	-0.064881103515625	0.01942799949645996	0.9064739990234375	-0.08406950378417968	0.024932300567626953	0.909625	-0.10795600128173828	0.026407699584960937	0.920760009765625	-0.12238099670410156	0.016903799057006837	0.955114990234375	-0.06782530212402343	0.03574789810180664	0.921822021484375	-0.0842030029296875	0.03949290084838867	0.9302570190429688	-0.09926390075683594	0.03890909957885742	0.942156005859375	-0.1127699966430664	0.03048139953613281	0.9673980102539063	-0.12981100463867187	-0.008355090141296387	1.026719970703125
56	1.8666666666666667	-0.09025469970703125	-0.05167770004272461	0.910031982421875	-0.10065799713134765	-0.048774898529052736	0.9366119995117187	-0.10813300323486329	-0.047073699951171874	0.9678330078125	-0.11136599731445312	-0.029215099334716797	0.998843994140625	-0.06917050170898438	-0.015868200302124023	0.8833400268554688	-0.08975869750976563	-0.01591160011291504	0.892469970703125	-0.10865599822998047	-0.017132600784301757	0.9069169921875	-0.12435800170898438	-0.02284230041503906	0.9432119750976562	-0.06470719909667969	0.004350450038909912	0.8837689819335938	-0.0855	0.006717679977416992	0.89135302734375	-0.1087300033569336	0.006093709945678711	0.9079310302734375	-0.12574199676513673	-0.0008306180238723751	0.9460289916992187	-0.06478399658203125	0.01914150047302246	0.906593994140625	-0.08394809722900391	0.02465679931640625	0.90975	-0.10791300201416015	0.026187000274658204	0.9208770141601562	-0.12246700286865235	0.016628700256347655	0.9549860229492187	-0.06767910003662109	0.03530599975585937	0.9219039916992188	-0.08414920043945312	0.03908050155639648	0.9302559814453125	-0.09931009674072265	0.03857410049438476	0.9420390014648438	-0.11286100006103515	0.030303899765014648	0.9672080078125	-0.13006100463867187	-0.008430060386657714	1.02656005859375
57	1.9	-0.0902770004272461	-0.0518473014831543	0.9099650268554688	-0.10076899719238282	-0.04901449966430664	0.9365	-0.10822599792480468	-0.0473041000366211	0.9677490234375	-0.11164299774169922	-0.029425699234008788	0.99860498046875	-0.0693677978515625	-0.0162224006652832	0.8830659790039063	-0.0900645980834961	-0.01625819969177246	0.892219970703125	-0.10891000366210937	-0.01747559928894043	0.9067059936523437	-0.1249729995727539	-0.023335100173950196	0.9427979736328125	-0.06464179992675781	0.003901340007781982	0.883906005859375	-0.08546119689941406	0.006301320075988768	0.8912340087890624	-0.10878600311279298	0.0057019200325012205	0.9077410278320313	-0.1261429977416992	-0.00113086998462677	0.9456920166015625	-0.0648416976928711	0.018786399841308594	0.906593017578125	-0.08399690246582031	0.024257600784301756	0.9096710205078125	-0.10796099853515626	0.02579800033569336	0.9206179809570313	-0.12269599914550781	0.01639970016479492	0.954655029296875	-0.06782599639892578	0.03480659866333008	0.9217890014648438	-0.08417330169677735	0.03861130142211914	0.9300809936523438	-0.09958619689941406	0.03814839935302734	0.941676025390625	-0.11318099975585938	0.029915300369262696	0.967072021484375	-0.13026300048828124	-0.008829580307006837	1.026219970703125
